HIERARCHY
ROOT Hips
{
  OFFSET -33.9132 29.2015 117.021
  CHANNELS 6 Xposition Yposition Zposition Zrotation Xrotation Yrotation
  JOINT LeftUpLeg
  {
    OFFSET 8.64259 1.95398 -2.38835
    CHANNELS 3 Zrotation Xrotation Yrotation
    JOINT LeftLeg
    {
      OFFSET 43.7702 0 0
      CHANNELS 3 Zrotation Xrotation Yrotation
      JOINT LeftFoot
      {
        OFFSET 40.6238 0 0
        CHANNELS 3 Zrotation Xrotation Yrotation
        JOINT LeftToeBase
        {
          OFFSET 12.7242 0 0
          CHANNELS 3 Zrotation Xrotation Yrotation
          End Site
          {
            OFFSET 0 0 0
          }
        }
      }
    }
  }
  JOINT RightUpLeg
  {
    OFFSET -8.2249 1.95398 -2.59336
    CHANNELS 3 Zrotation Xrotation Yrotation
    JOINT RightLeg
    {
      OFFSET 43.5653 0 0
      CHANNELS 3 Zrotation Xrotation Yrotation
      JOINT RightFoot
      {
        OFFSET 40.6238 0 0
        CHANNELS 3 Zrotation Xrotation Yrotation
        JOINT RightToeBase
        {
          OFFSET 12.7242 0 0
          CHANNELS 3 Zrotation Xrotation Yrotation
          End Site
          {
            OFFSET 0 0 0
          }
        }
      }
    }
  }
  JOINT Spine
  {
    OFFSET 0.165834 0.87714 6.61349
    CHANNELS 3 Zrotation Xrotation Yrotation
    JOINT Spine1
    {
      OFFSET 7.38963 1.71661e-005 0
      CHANNELS 3 Zrotation Xrotation Yrotation
      JOINT Spine2
      {
        OFFSET 11.9445 1.14441e-005 0
        CHANNELS 3 Zrotation Xrotation Yrotation
        JOINT Spine3
        {
          OFFSET 14.7254 4.19617e-005 0
          CHANNELS 3 Zrotation Xrotation Yrotation
          JOINT Spine4
          {
            OFFSET 10.9679 0 0
            CHANNELS 3 Zrotation Xrotation Yrotation
            JOINT RightShoulder
            {
              OFFSET 2.46616 -1.6653 3.69651
              CHANNELS 3 Zrotation Xrotation Yrotation
              JOINT RightArm
              {
                OFFSET 13.0012 0 0
                CHANNELS 3 Zrotation Xrotation Yrotation
                JOINT RightForeArm
                {
                  OFFSET 28.7848 1.62311e-005 0
                  CHANNELS 3 Zrotation Xrotation Yrotation
                  JOINT RightHand
                  {
                    OFFSET 26.5688 1.62095e-005 0
                    CHANNELS 3 Zrotation Xrotation Yrotation
                    End Site
                    {
                      OFFSET 0 0 0
                    }
                  }
                }
              }
            }
            JOINT LeftShoulder
            {
              OFFSET 2.38034 -1.29275 -3.7523
              CHANNELS 3 Zrotation Xrotation Yrotation
              JOINT LeftArm
              {
                OFFSET 16.3182 6.07031e-005 0
                CHANNELS 3 Zrotation Xrotation Yrotation
                JOINT LeftForeArm
                {
                  OFFSET 27.0901 0 0
                  CHANNELS 3 Zrotation Xrotation Yrotation
                  JOINT LeftHand
                  {
                    OFFSET 24.5451 1.51738e-005 0
                    CHANNELS 3 Zrotation Xrotation Yrotation
                    End Site
                    {
                      OFFSET 0 0 0
                    }
                  }
                }
              }
            }
            JOINT Neck
            {
              OFFSET 5.0226 -0.0266342 0
              CHANNELS 3 Zrotation Xrotation Yrotation
              JOINT Head
              {
                OFFSET 6.69364 2.86102e-005 0
                CHANNELS 3 Zrotation Xrotation Yrotation
                End Site
                {
                  OFFSET 0 0 0
                }
              }
            }
          }
        }
      }
    }
  }
}
MOTION
Frames:	10
Frame Time:	0.0416667
37.2743 95.8618 -315.737 -147.398 -84.0421 -144.217 -171.313 -18.8008 90.684 -17.1297 12.3343 -0.554331 86.9021 16.5938 -1.24493 24.146 -6.46216 8.80397 178.495 20.453 98.1101 -6.6647 -17.8351 3.03946 50.2917 7.03267 -2.42013 58.8118 -13.8249 -9.13737 -0.635858 7.98229 -90.2335 10.9077 -1.37395 -0.334965 -0.762512 -1.38736 -0.274159 -23.3021 -1.20975 -0.732451 -3.28944 -1.20977 -0.732464 89.8485 -32.0107 -106.304 45.4622 9.27809 4.93672 -5.36157 -42.8978 -5.48678 -13.6543 1.48161 -18.2423 -89.5836 -46.3179 78.5563 -25.4013 -12.1821 -37.7032 -6.99136 34.0467 -1.90149 16.2967 -3.61709 -23.9223 6.3026 0.780724 -10.4302 2.51042 2.84445 1.29442 
37.0001 96.2765 -304.988 -159.878 -83.9394 -155.227 -169.319 -23.5044 93.7488 -17.8875 14.1114 0.257199 75.5068 11.3801 -0.0602169 36.968 0.0457504 10.5109 179.214 23.391 100.646 -27.1239 -9.21834 1.19266 60.0132 1.83319 -1.45675 23.1261 -0.187283 10.426 -0.750726 7.87648 -90.6022 11.1115 -1.77382 -1.02687 -0.558634 -1.81729 -0.947804 -23.097 -1.38322 -1.51252 -3.0843 -1.38323 -1.51252 90.4774 -31.1922 -105.38 45.9484 9.55778 6.64931 -5.33067 -42.4552 -5.46795 -10.286 0.74025 -14.2657 -89.8445 -48.6774 78.677 -25.8537 -10.1055 -33.0823 -9.10672 37.2711 0.121557 12.7427 -2.26179 -20.223 7.0295 1.30251 -7.22744 0.958619 2.73591 0.506082 
36.6995 96.9244 -294.839 -169.717 -82.0147 -163.921 -167.445 -10.3588 99.6633 -46.2523 22.1141 0.977457 58.3386 -0.7969 -0.825993 27.7925 -2.33918 4.60126 177.967 18.4854 102.111 -35.7298 -7.97928 1.95033 66.9122 -3.0386 -1.80078 19.1428 1.55597 8.56416 -0.605362 7.92199 -90.8303 11.018 -1.58987 -1.5011 -0.652787 -1.65439 -1.42968 -23.185 -1.0653 -1.90942 -3.17234 -1.06531 -1.90943 90.7331 -30.3949 -105.16 46.1372 9.11246 5.06964 -5.30039 -42.0145 -5.44997 -10.1857 0.928814 -16.3074 -89.8824 -48.2821 78.5327 -28.2232 -9.80671 -28.8989 -9.19779 46.3023 -0.0204844 8.22023 -0.101171 -9.73555 6.16679 0.874693 -5.9485 -0.381145 2.02273 0.975322 
36.3156 98.2652 -287.022 -177.361 -81.7695 -171.575 -169.331 6.85061 99.2851 -65.9258 18.9402 2.01687 60.4399 0.712288 2.24675 10.8471 -10.7114 2.97279 177.917 10.9219 101.811 -32.853 -8.78984 2.05295 69.9348 -5.68833 -2.8586 22.1092 0.87042 7.12716 -0.282205 7.98755 -90.8141 10.8879 -0.938136 -1.53051 -0.78356 -1.00458 -1.48776 -23.3125 -0.434869 -1.74164 -3.29985 -0.434864 -1.74164 90.6664 -30.0885 -105.403 47.3684 6.87018 -1.64057 -5.17933 -40.194 -5.37978 -17.4037 1.41902 -15.0586 -89.9294 -49.8412 78.7987 -24.9538 -11.028 -20.1974 -9.43377 47.1592 -0.0225922 6.09559 0.264101 -8.25895 5.70243 -0.261585 -5.11821 0.317807 0.724697 0.652983 
36.4482 99.9765 -279.489 -165.685 -81.5418 -163.616 -171.496 17.2994 92.9055 -60.594 6.38574 0.998004 68.7674 6.73027 3.16888 9.49597 -13.5615 5.97863 176.953 2.53583 97.8611 -27.3583 -12.4619 0.57147 71.7657 -6.91908 -3.0444 23.5246 0.245291 7.3635 0.383166 7.96794 -90.2826 10.9395 0.632133 -0.621997 -0.731441 0.604139 -0.649218 -23.2673 0.789843 -0.403257 -3.25459 0.789828 -0.403271 90.4006 -29.5415 -106.135 47.7378 4.58016 -8.99485 -5.25852 -41.3985 -5.42569 -22.7034 1.5613 -13.2187 -89.1437 -49.6771 79.9444 -19.3676 -7.94995 -6.82335 -11.295 37.2725 0.0122758 5.89503 -0.380564 -13.2284 2.87711 -1.40798 -3.50437 1.65189 -0.831644 -0.58024 
37.1371 100.259 -271.733 -146.528 -81.9078 -147.773 -173.489 21.8765 87.9928 -37.6571 0.151155 -1.19049 66.4902 5.08096 -1.083 11.3805 -10.9471 3.80526 174.637 -2.25309 93.5544 -24.9797 -18.5812 -0.343018 74.7196 -9.09017 -4.38526 22.9643 0.690167 6.60701 0.980391 7.89288 -89.8923 11.0874 2.00158 0.0218496 -0.581963 2.0006 -0.0663061 -23.1287 1.90243 0.622612 -3.11605 1.90243 0.622618 89.913 -27.5619 -107.905 45.8986 3.37374 -16.1352 -5.48862 -44.6598 -5.56442 -22.2531 2.23229 -16.8227 -87.7906 -49.6063 81.9679 -15.6955 -7.08168 0.941159 -11.687 30.8619 -0.0262846 4.95808 -0.777742 -18.257 2.46002 -1.44334 1.49867 1.4186 -1.76978 -3.00817 
37.8017 98.9081 -262.836 -146.346 -80.6219 -148.256 -176.491 19.3483 86.4455 -11.7879 2.86338 -1.62448 63.2772 3.65478 0.168144 12.9998 -11.2996 5.78223 172.398 -10.2576 89.7898 -23.4142 -20.6634 -0.575882 77.995 -11.7925 -5.00899 26.9345 -0.70785 5.92531 1.22946 8.08473 -89.9169 10.7063 2.48672 -0.0628651 -0.962244 2.48155 -0.172328 -23.5155 2.39058 0.687846 -3.50284 2.39058 0.68784 89.7551 -26.4758 -108.693 42.2934 3.50826 -22.9779 -5.91744 -49.9207 -5.85218 -24.56 3.30275 -20.7841 -88.5601 -52.3172 81.3155 -12.4182 -10.5836 5.06308 -10.7779 28.4441 -0.0177551 3.71827 -0.544399 -17.6699 2.05853 -1.15336 5.43351 2.52419 -2.14433 -3.27714 
38.1411 97.3051 -252.538 -137.149 -79.4724 -140.564 -177.555 18.35 84.8436 -7.2836 -1.47229 -2.02854 58.51 0.888502 -1.83421 11.623 -10.9568 4.02566 169.441 -16.1504 85.6404 -24.1088 -23.1918 -1.46141 79.0797 -13.5409 -5.61985 31.5301 -2.32959 4.9646 1.37284 8.08488 -89.7007 10.7035 2.87185 0.331562 -0.964314 2.88367 0.204735 -23.5216 2.63935 1.17992 -3.50897 2.63935 1.17992 89.1379 -27.1835 -109.659 41.2886 3.18872 -26.4346 -5.76815 -48.2053 -5.74793 -27.3242 3.40932 -19.4968 -88.6216 -54.283 81.5796 -11.0584 -13.5546 6.94609 -10.1812 26.0154 -0.0159066 2.81537 -0.114692 -12.9821 2.23354 -0.589302 5.77326 3.34446 -1.63727 -2.63649 
38.2037 97.3059 -240.718 -126.492 -77.9137 -131.314 -175.168 20.866 83.6117 -21.378 2.01788 -3.69547 57.0118 -2.67117 -1.26578 5.55255 -12.3469 0.973098 168.196 -18.193 82.0539 -28.8597 -25.1055 -4.53871 69.9848 -6.90323 -5.04494 41.3746 -6.50609 7.90634 1.58548 7.85927 -89.413 11.1457 3.42842 0.834242 -0.520881 3.46181 0.682374 -23.0836 3.0191 1.82684 -3.07092 3.0191 1.82684 89.0645 -27.9071 -109.491 45.4418 1.60293 -22.7409 -5.54503 -45.4116 -5.60096 -26.8358 3.11396 -18.5222 -88.4103 -55.2696 82.0513 -11.048 -17.7583 5.95718 -8.4703 28.5026 -0.0162572 1.12727 0.219589 -10.9972 3.24738 -0.62346 4.49691 0.0883065 -1.43645 -2.81046 
38.1077 98.115 -229.316 -137.587 -77.5066 -144.08 -173.911 15.0019 81.0058 -29.6196 3.77892 -4.62368 66.9966 3.89917 -0.574825 6.66279 -14.5047 4.83458 169.429 -12.5747 79.8464 -47.1071 -26.806 -6.8949 55.4191 3.43329 0.0722439 30.6501 -2.49109 7.9677 1.2975 7.93889 -89.1661 10.978 2.96919 1.37613 -0.69018 3.02688 1.24401 -23.239 2.41838 2.2051 -3.22638 2.41839 2.20509 89.0963 -27.7005 -109.517 50.2363 1.16634 -15.522 -5.8848 -49.5515 -5.82649 -20.4912 2.52469 -19.5388 -88.99 -54.9111 81.1664 -12.8501 -18.2076 0.63692 -8.34025 28.3407 -0.0169752 1.16441 0.205397 -11.1812 2.43484 -0.664388 3.80554 0.160845 -1.35369 -3.44071 
